<svg width="30" height="30" viewBox="0 0 30 30" fill="none" xmlns="http://www.w3.org/2000/svg">
<circle cx="15" cy="15" r="14.5" fill="#59C3DA" stroke="black"/>
<g clip-path="url(#clip0_52_65)">
<path d="M15 7.49907C16.7288 7.49913 18.4228 7.9329 19.8892 8.751C21.3556 9.5691 22.5356 10.7387 23.2947 12.1266C24.0539 13.5145 24.3617 15.0649 24.1832 16.6015C24.0047 18.138 23.347 19.5989 22.285 20.8179L22.3208 20.8563L23.5615 22.3185C23.6892 22.484 23.7405 22.6871 23.7049 22.8855C23.6692 23.084 23.5493 23.2625 23.37 23.3839C23.1908 23.5053 22.9661 23.5603 22.7426 23.5374C22.5192 23.5145 22.3142 23.4154 22.1704 23.2609L21.0711 21.965C19.3894 23.277 17.2325 24 15 24C12.7675 24 10.6106 23.277 8.92887 21.965L7.8278 23.2609C7.68796 23.4255 7.48066 23.5337 7.25151 23.5618C7.02235 23.5899 6.79011 23.5354 6.60587 23.4105C6.42164 23.2855 6.3005 23.1003 6.26911 22.8955C6.23771 22.6907 6.29864 22.4832 6.43847 22.3185L7.70963 20.8211C6.64702 19.6017 5.98899 18.1401 5.81048 16.6028C5.63198 15.0656 5.94017 13.5144 6.69996 12.126C7.45975 10.7376 8.6406 9.56778 10.108 8.74975C11.5754 7.93172 13.2704 7.49838 15 7.49907ZM22.7594 9.46529C22.1807 8.92406 21.5445 8.43434 20.8599 8.00302C20.2792 7.63781 19.6654 7.31672 19.0247 7.04311C23.216 4.05297 27.8853 8.00302 25.2158 12.3514C25.1854 12.4266 25.1549 12.5018 25.1209 12.5738C24.8628 12.0747 24.5636 11.5935 24.2257 11.1339C23.7932 10.5374 23.2993 9.9782 22.7505 9.46369L22.7594 9.46529ZM7.24056 9.46529C7.81888 8.92369 8.4551 8.43393 9.14013 8.00302C9.72287 7.6377 10.3392 7.31712 10.9824 7.04471C6.79118 4.05457 2.12191 8.00462 4.79134 12.353C4.82178 12.4282 4.85221 12.5034 4.88444 12.5754C5.47165 11.4293 6.26786 10.3783 7.24056 9.46529ZM15.4762 14.9128C15.6568 14.9949 15.8067 15.1222 15.9077 15.2792H17.3919C17.3576 15.2065 17.3512 15.1257 17.3737 15.0495C17.3963 14.9732 17.4464 14.9058 17.5164 14.8577C17.5864 14.8096 17.6722 14.7836 17.7605 14.7837C17.8487 14.7839 17.9344 14.8101 18.0042 14.8584L18.8851 15.4664C18.9326 15.4994 18.9711 15.5416 18.9977 15.5898C19.0244 15.638 19.0385 15.691 19.0391 15.7447C19.0387 15.7989 19.0245 15.8523 18.9975 15.9009C18.9705 15.9494 18.9314 15.9918 18.8833 16.0247L18.0024 16.6327C17.9327 16.6809 17.8469 16.7072 17.7587 16.7073C17.6704 16.7075 17.5846 16.6815 17.5146 16.6334C17.4446 16.5853 17.3945 16.5179 17.3719 16.4416C17.3494 16.3653 17.3558 16.2846 17.3901 16.2119H15.9077C15.8285 16.3344 15.7194 16.4393 15.5884 16.5188C15.4575 16.5983 15.3081 16.6504 15.1515 16.6711C14.9949 16.6918 14.835 16.6806 14.684 16.6383C14.5329 16.5961 14.3944 16.5239 14.2789 16.4271C14.1634 16.3304 14.0739 16.2115 14.017 16.0795C13.9601 15.9475 13.9373 15.8057 13.9504 15.6647C13.9634 15.5237 14.0119 15.3872 14.0923 15.2653C14.1727 15.1434 14.2828 15.0393 14.4145 14.9608L14.4271 13.1466C14.3452 13.1794 14.2533 13.1865 14.1664 13.1668C14.0794 13.147 14.0025 13.1015 13.9481 13.0377C13.8937 12.974 13.8651 12.8956 13.8669 12.8154C13.8687 12.7353 13.9008 12.658 13.958 12.5962L14.658 11.8219C14.694 11.7821 14.7392 11.7498 14.7905 11.7271C14.8418 11.7045 14.898 11.6921 14.9552 11.6907H14.9642C15.0281 11.6896 15.0914 11.7023 15.1488 11.7276C15.2061 11.7529 15.2558 11.7902 15.2936 11.8363L15.9543 12.6362C16.0053 12.6986 16.0323 12.7742 16.0312 12.8515C16.03 12.9289 16.0008 13.0038 15.9479 13.0649C15.8949 13.1261 15.8212 13.1703 15.7378 13.1908C15.6543 13.2113 15.5657 13.207 15.4852 13.1786L15.4727 14.9016L15.4762 14.9128ZM18.7705 20.7955C18.802 20.8405 18.8231 20.8908 18.8323 20.9433C18.8416 20.9957 18.839 21.0494 18.8245 21.1009C18.8101 21.1524 18.7842 21.2008 18.7483 21.2432C18.7125 21.2856 18.6675 21.3211 18.6159 21.3476C18.5644 21.3741 18.5074 21.391 18.4483 21.3973C18.3893 21.4037 18.3295 21.3993 18.2724 21.3845C18.2153 21.3697 18.1621 21.3448 18.116 21.3112C18.0699 21.2776 18.0319 21.2361 18.0042 21.189L17.673 20.6771C17.6197 20.5866 17.6077 20.4812 17.6396 20.3829C17.6715 20.2847 17.7447 20.2014 17.844 20.1504C17.9432 20.0995 18.0606 20.0849 18.1717 20.1097C18.2827 20.1345 18.3786 20.1968 18.4393 20.2835L18.7705 20.7955ZM11.2295 10.7052C11.1935 10.66 11.1685 10.6086 11.1561 10.5543C11.1438 10.5 11.1444 10.4439 11.1579 10.3898C11.1714 10.3357 11.1974 10.2847 11.2344 10.2402C11.2714 10.1956 11.3185 10.1586 11.3725 10.1314C11.4266 10.1042 11.4865 10.0874 11.5482 10.0823C11.61 10.0771 11.6723 10.0836 11.7311 10.1013C11.7899 10.1191 11.8438 10.1477 11.8894 10.1853C11.935 10.2229 11.9713 10.2687 11.9958 10.3196L12.327 10.8316C12.3803 10.9221 12.3923 11.0275 12.3604 11.1257C12.3285 11.2239 12.2553 11.3073 12.156 11.3582C12.0568 11.4092 11.9393 11.4238 11.8283 11.399C11.7173 11.3742 11.6214 11.3118 11.5607 11.2251L11.2295 10.7132V10.7052ZM21.089 18.4341C21.1835 18.4892 21.2509 18.5745 21.2773 18.6725C21.3037 18.7705 21.2872 18.8739 21.2312 18.9614C21.1751 19.0489 21.0837 19.1139 20.9758 19.1432C20.8678 19.1725 20.7514 19.1637 20.6504 19.1188L20.0775 18.8229C20.0272 18.7968 19.9831 18.7622 19.9478 18.7209C19.9124 18.6796 19.8865 18.6325 19.8716 18.5823C19.8566 18.5321 19.8529 18.4797 19.8605 18.4282C19.8682 18.3767 19.8872 18.3271 19.9163 18.2821C19.9455 18.2371 19.9843 18.1978 20.0305 18.1662C20.0767 18.1346 20.1293 18.1115 20.1855 18.0981C20.2417 18.0848 20.3003 18.0814 20.358 18.0883C20.4156 18.0951 20.4712 18.1121 20.5215 18.1381L21.0944 18.4341H21.089ZM8.91455 13.0666C8.81811 13.0116 8.74914 12.9255 8.72202 12.8262C8.6949 12.7268 8.71172 12.622 8.76897 12.5335C8.82622 12.445 8.91949 12.3797 9.02933 12.3511C9.13917 12.3226 9.25711 12.333 9.35856 12.3802L9.93148 12.6762C10.0329 12.7292 10.1065 12.8161 10.1362 12.9177C10.1659 13.0192 10.1493 13.1272 10.0899 13.2178C10.0306 13.3083 9.93337 13.3742 9.81972 13.4007C9.70607 13.4273 9.58526 13.4124 9.48388 13.3593L8.91097 13.065L8.91455 13.0666ZM21.7765 15.3544C21.8938 15.3544 22.0063 15.396 22.0892 15.4701C22.1722 15.5442 22.2187 15.6447 22.2187 15.7495C22.2187 15.8543 22.1722 15.9548 22.0892 16.029C22.0063 16.1031 21.8938 16.1447 21.7765 16.1447H21.1123C20.995 16.1447 20.8825 16.1031 20.7996 16.029C20.7167 15.9548 20.6701 15.8543 20.6701 15.7495C20.6701 15.6447 20.7167 15.5442 20.7996 15.4701C20.8825 15.396 20.995 15.3544 21.1123 15.3544H21.7765ZM8.22526 16.1447C8.10797 16.1447 7.99549 16.1031 7.91256 16.029C7.82963 15.9548 7.78304 15.8543 7.78304 15.7495C7.78304 15.6447 7.82963 15.5442 7.91256 15.4701C7.99549 15.396 8.10797 15.3544 8.22526 15.3544H8.88769C9.00498 15.3544 9.11746 15.396 9.20039 15.4701C9.28332 15.5442 9.32991 15.6447 9.32991 15.7495C9.32991 15.8543 9.28332 15.9548 9.20039 16.029C9.11746 16.1031 9.00498 16.1447 8.88769 16.1447H8.22526ZM20.6504 12.3802C20.7008 12.3544 20.7565 12.3377 20.8141 12.331C20.8718 12.3244 20.9303 12.328 20.9864 12.3416C21.0426 12.3552 21.0951 12.3785 21.1411 12.4103C21.1871 12.442 21.2257 12.4816 21.2546 12.5266C21.2836 12.5717 21.3023 12.6214 21.3097 12.6729C21.3171 12.7244 21.3131 12.7768 21.2979 12.8269C21.2827 12.8771 21.2565 12.924 21.221 12.9651C21.1855 13.0063 21.1413 13.0407 21.0908 13.0666L20.5143 13.3593C20.464 13.3853 20.4085 13.4021 20.3509 13.4089C20.2933 13.4157 20.2347 13.4122 20.1786 13.3988C20.1225 13.3853 20.0699 13.3621 20.0239 13.3305C19.9778 13.2989 19.9391 13.2595 19.9101 13.2146C19.881 13.1696 19.8622 13.12 19.8546 13.0685C19.8471 13.017 19.8509 12.9647 19.8659 12.9146C19.881 12.8645 19.9069 12.8175 19.9423 12.7763C19.9777 12.7351 20.0218 12.7006 20.0721 12.6746L20.6504 12.3802ZM9.35319 19.1188C9.25192 19.1665 9.13393 19.1772 9.02401 19.1487C8.9141 19.1202 8.82083 19.0547 8.7638 18.9661C8.70677 18.8774 8.69043 18.7724 8.71821 18.6732C8.74598 18.574 8.81572 18.4883 8.91276 18.4341L9.48568 18.1381C9.58753 18.0859 9.70841 18.072 9.82173 18.0995C9.93505 18.1269 10.0315 18.1935 10.0899 18.2845C10.1483 18.3755 10.1639 18.4835 10.1332 18.5848C10.1024 18.6861 10.028 18.7723 9.9261 18.8245L9.35319 19.1188ZM18.0024 10.31C18.0301 10.2625 18.0683 10.2205 18.1147 10.1866C18.161 10.1526 18.2146 10.1274 18.2722 10.1124C18.3297 10.0974 18.3901 10.093 18.4496 10.0995C18.5091 10.1059 18.5665 10.1231 18.6184 10.1499C18.6703 10.1767 18.7156 10.2126 18.7515 10.2555C18.7875 10.2983 18.8133 10.3473 18.8275 10.3993C18.8418 10.4513 18.844 10.5054 18.8342 10.5583C18.8244 10.6111 18.8027 10.6616 18.7705 10.7068L18.4393 11.2187C18.3804 11.3095 18.2836 11.3757 18.1701 11.4027C18.0566 11.4297 17.9358 11.4153 17.8341 11.3627C17.7325 11.3101 17.6585 11.2236 17.6283 11.1222C17.598 11.0208 17.6141 10.9128 17.673 10.822L18.0024 10.31ZM11.9958 21.1986C11.9666 21.2436 11.9278 21.283 11.8816 21.3146C11.8355 21.3461 11.7828 21.3693 11.7266 21.3826C11.6704 21.396 11.6118 21.3994 11.5541 21.3925C11.4965 21.3856 11.4409 21.3687 11.3906 21.3426C11.3403 21.3166 11.2962 21.2819 11.2609 21.2407C11.2256 21.1994 11.1997 21.1523 11.1847 21.1021C11.1698 21.0519 11.166 20.9995 11.1737 20.948C11.1814 20.8965 11.2003 20.8468 11.2295 20.8019L11.5607 20.2899C11.5899 20.245 11.6286 20.2056 11.6748 20.174C11.721 20.1424 11.7737 20.1193 11.8299 20.1059C11.8861 20.0926 11.9447 20.0892 12.0023 20.0961C12.06 20.1029 12.1155 20.1199 12.1659 20.1459C12.2162 20.172 12.2602 20.2066 12.2956 20.2479C12.3309 20.2892 12.3568 20.3363 12.3717 20.3865C12.3867 20.4367 12.3905 20.4891 12.3828 20.5406C12.3751 20.5921 12.3561 20.6417 12.327 20.6867L11.9958 21.1986ZM14.5631 9.69727C14.5631 9.59247 14.6097 9.49196 14.6927 9.41785C14.7756 9.34374 14.8881 9.30211 15.0054 9.30211C15.1227 9.30211 15.2351 9.34374 15.3181 9.41785C15.401 9.49196 15.4476 9.59247 15.4476 9.69727V10.2876C15.4476 10.3924 15.401 10.4929 15.3181 10.567C15.2351 10.6412 15.1227 10.6828 15.0054 10.6828C14.8881 10.6828 14.7756 10.6412 14.6927 10.567C14.6097 10.4929 14.5631 10.3924 14.5631 10.2876V9.69727ZM15.4476 21.8034C15.4476 21.9082 15.401 22.0087 15.3181 22.0828C15.2351 22.1569 15.1227 22.1986 15.0054 22.1986C14.8881 22.1986 14.7756 22.1569 14.6927 22.0828C14.6097 22.0087 14.5631 21.9082 14.5631 21.8034V21.2114C14.5631 21.1596 14.5746 21.1082 14.5968 21.0602C14.619 21.0123 14.6516 20.9687 14.6927 20.932C14.7337 20.8953 14.7825 20.8662 14.8361 20.8464C14.8898 20.8265 14.9473 20.8163 15.0054 20.8163C15.0634 20.8163 15.1209 20.8265 15.1746 20.8464C15.2283 20.8662 15.277 20.8953 15.3181 20.932C15.3591 20.9687 15.3917 21.0123 15.4139 21.0602C15.4362 21.1082 15.4476 21.1596 15.4476 21.2114V21.8034ZM20.7596 10.6044C19.4283 9.41437 17.6764 8.67368 15.8024 8.50852C13.9285 8.34337 12.0484 8.76397 10.4826 9.69866C8.91674 10.6333 7.76206 12.0243 7.21527 13.6345C6.66848 15.2447 6.76341 16.9744 7.48389 18.5291C8.20438 20.0837 9.50583 21.367 11.1665 22.1603C12.8271 22.9536 14.7442 23.2078 16.5911 22.8796C18.438 22.5514 20.1004 21.6611 21.295 20.3604C22.4896 19.0596 23.1426 17.429 23.1426 15.7463C23.1426 14.7915 22.9316 13.846 22.5217 12.9642C22.1119 12.0824 21.5112 11.2815 20.7542 10.6076L20.7596 10.6044Z" fill="black"/>
</g>
<defs>
<clipPath id="clip0_52_65">
<rect width="22" height="18" fill="white" transform="translate(4 6)"/>
</clipPath>
</defs>
</svg>
