<svg width="30" height="30" viewBox="0 0 30 30" fill="none" xmlns="http://www.w3.org/2000/svg">
<circle cx="15" cy="15" r="14.5" fill="#59C3DA" stroke="black"/>
<path d="M16.76 7.46C19.18 7.46 21.16 9.8 21.16 12.66V17.86C21.16 20.72 19.18 23.06 16.76 23.06H12.36C9.93999 23.06 7.95999 20.72 7.95999 17.86V12.66C7.95999 9.8 9.93999 7.46 12.36 7.46H16.76ZM16.76 6.16H12.36C9.27999 6.16 6.85999 9.02 6.85999 12.66V17.86C6.85999 21.5 9.27999 24.36 12.36 24.36H16.76C19.84 24.36 22.26 21.5 22.26 17.86V12.66C22.26 9.15 19.84 6.16 16.76 6.16Z" fill="black"/>
<path d="M15.33 21.37L8.95001 13.7L10.6 12.14L14.34 15.52C15.88 13.44 19.29 9.15 23.91 5.77L24.35 6.81C20.06 11.49 16.54 18.12 15.33 21.37Z" fill="black"/>
</svg>
